<?xml version="1.0"?>
<svg version="1.1" xmlns="http://www.w3.org/2000/svg" width="400" height="200" style=""><path fill="#c7327f" d="M15.4765625,103.0703125q0-0.3203125,0.1875-0.55078125t0.45703125-0.375t0.58984375-0.21484375t0.59375-0.0703125q0.2109375,0,0.5625,0.0625t0.6875,0.1875t0.58203125,0.328125t0.24609375,0.4765625q0,0.125-0.09375,0.22265625t-0.1953125,0.09765625q-0.2109375,0-0.3828125-0.13671875t-0.35546875-0.2890625t-0.40234375-0.2890625t-0.4921875-0.13671875t-0.49609375,0.17578125t-0.22265625,0.46484375q0,0.4765625,0.3359375,0.93359375t0.73828125,0.9609375t0.73828125,1.05859375t0.3359375,1.2265625q0,0.2890625-0.12109375,0.48828125t-0.3203125,0.32421875t-0.44921875,0.19140625t-0.484375,0.06640625q-0.2578125,0-0.6015625-0.12109375t-0.6484375-0.3203125t-0.51171875-0.46484375t-0.20703125-0.5546875q0-0.140625,0.19921875-0.1796875t0.29296875-0.0390625q0.046875,0,0.14453125,0.03125t0.19140625,0.0703125t0.16796875,0.0859375t0.05859375,0.1015625q0.078125,0.09375,0.23828125,0.27734375t0.3203125,0.296875t0.28125,0.08203125t0.12109375-0.3515625q0-0.609375-0.328125-1.12109375t-0.71484375-1t-0.71484375-0.96875t-0.328125-1.02734375z M20.981796875,108.2578125l0.1640625-0.1953125q-0.03125-1.3125-0.0703125-2.6171875t-0.0390625-2.59375q0-1.6015625,0.19140625-3.09765625t0.37890625-3.06640625q0.015625-0.09375,0.08984375-0.15234375t0.18359375-0.09765625t0.22265625-0.0546875t0.20703125-0.015625q0.125,0,0.3125,0.046875t0.375,0.2734375q0,0.078125,0.01171875,0.13671875t0.01171875,0.13671875q0,0.59375-0.16015625,1.2734375t-0.21484375,1.3046875q-0.0625,0.765625-0.0859375,1.515625t-0.0234375,1.5234375l0.015625,0.6875q0.15625-0.1953125,0.4453125-0.5t0.625-0.58984375t0.671875-0.48828125t0.609375-0.203125q0.4140625,0,0.57421875,0.234375t0.16015625,0.6171875q0,0.3515625-0.15234375,0.734375t-0.3984375,0.74609375t-0.55859375,0.65234375t-0.6171875,0.4296875q0.4140625,0.515625,0.84765625,0.984375t0.94921875,0.8828125l0,0.1796875q-0.015625,0.078125-0.09765625,0.1171875t-0.1796875,0.0625t-0.19140625,0.03515625t-0.15625,0.01171875q-0.3828125,0-0.73828125-0.2265625t-0.6640625-0.5546875t-0.58203125-0.6953125t-0.5-0.640625q0.046875,0.8984375,0.10546875,1.79296875t0.05859375,1.79296875q0,0.109375-0.09765625,0.18359375t-0.2265625,0.11328125t-0.26171875,0.0546875t-0.21875,0.015625q-0.4609375,0-0.65234375-0.16796875t-0.32421875-0.58203125z M22.583359375,104.578125q0.1953125,0,0.46484375-0.16796875t0.55859375-0.41796875t0.5390625-0.52734375t0.40234375-0.52734375t0.15234375-0.40234375t-0.2109375-0.13671875q-0.078125,0-0.3203125,0.2265625t-0.5390625,0.5546875t-0.59375,0.7109375t-0.453125,0.6875z M27.30734375,105.0859375q0-0.53125,0.14453125-1.0234375t0.43359375-0.87890625t0.72265625-0.6171875t1.00390625-0.23046875q0.3515625,0,0.77734375,0.10546875t0.80078125,0.3125t0.625,0.52734375t0.25,0.734375q0,0.1953125-0.06640625,0.296875t-0.26953125,0.1015625l-0.0859375-0.015625q0.2265625,0.609375,0.390625,1.25t0.3203125,1.28125q0.0625,0.125,0.09375,0.22265625t0.03125,0.19140625q0,0.125-0.0703125,0.20703125t-0.18359375,0.12109375t-0.234375,0.0546875t-0.21484375,0.015625q-0.3359375,0-0.50390625-0.1171875t-0.2421875-0.3203125t-0.08984375-0.45703125t-0.0625-0.51171875q-0.09375,0.3046875-0.24609375,0.59375t-0.359375,0.51953125t-0.48828125,0.3671875t-0.6328125,0.13671875q-0.515625,0-0.8671875-0.296875t-0.56640625-0.73046875t-0.3125-0.92578125t-0.09765625-0.9140625z M28.41671875,104.9765625q0,0.2890625,0.0390625,0.609375t0.12890625,0.6328125t0.23046875,0.58984375t0.3515625,0.48828125q0.3828125-0.4140625,0.56640625-1.0078125t0.328125-1.14453125t0.328125-0.9453125t0.56640625-0.39453125q0.2421875,0,0.40625,0.0859375q-0.078125-0.1953125-0.2578125-0.37890625t-0.40234375-0.3359375t-0.4609375-0.25t-0.44921875-0.09765625q-0.0625,0-0.14453125,0.01953125t-0.12890625,0.00390625q-0.3203125,0.09375-0.52734375,0.32421875t-0.3359375,0.54296875t-0.18359375,0.640625t-0.0546875,0.6171875z M34.078203125,102.8984375q0-0.3203125,0.11328125-0.5390625t0.48046875-0.21875q0.140625,0,0.3515625,0.04296875t0.2421875,0.21484375q0.078125,0.4609375,0.0859375,1t0.0546875,1.015625q0.1796875-0.3515625,0.4609375-0.7578125t0.640625-0.75t0.78125-0.5703125t0.859375-0.2265625q0.03125,0,0.1171875,0.0234375t0.16015625,0.06640625t0.08984375,0.09765625t-0.0859375,0.1015625q-0.03125,0.09375-0.1328125,0.11328125t-0.1796875,0.01953125q-0.046875,0-0.1484375-0.0390625q-0.578125,0.3046875-0.984375,0.828125t-0.6640625,1.16015625t-0.375,1.34375t-0.1171875,1.37890625q0,0.3359375-0.15234375,0.40625t-0.48828125,0.0703125q-0.1796875,0-0.37890625-0.0390625t-0.27734375-0.25q-0.140625-0.4453125-0.23046875-1.0234375t-0.13671875-1.19140625t-0.06640625-1.20703125t-0.01953125-1.0703125z M39.6303125,105.40625q0-0.546875,0.12109375-1.2890625t0.41015625-1.40625t0.76171875-1.12890625t1.19140625-0.46484375q0.671875,0,1.0078125,0.38671875t0.3359375,1.04296875q0,0.4296875-0.16015625,0.94140625t-0.45703125,0.96875t-0.703125,0.76171875t-0.90625,0.3046875l-0.203125-0.015625q0,0.2109375,0.0625,0.56640625t0.18359375,0.70703125t0.3125,0.6171875t0.46484375,0.265625q0.3984375,0,0.765625-0.3203125t0.6953125-0.7109375t0.609375-0.7109375t0.515625-0.3203125q0.125,0,0.2578125,0.0390625t0.1484375,0.21875q0,0.109375-0.05859375,0.1796875t-0.10546875,0.15625q-0.2421875,0.4140625-0.52734375,0.7890625t-0.64453125,0.6796875t-0.78515625,0.48046875t-0.94140625,0.17578125q-0.671875,0-1.1171875-0.23828125t-0.71875-0.640625t-0.39453125-0.9296875t-0.12109375-1.10546875z M41.02875,104.8125l0.21875,0.1953125q0.15625,0.140625,0.3125,0.0625t0.28125-0.28515625t0.23046875-0.51171875t0.1875-0.625t0.12109375-0.625t0.0390625-0.5078125l0-0.265625t-0.0234375-0.28125t-0.08203125-0.22265625t-0.18359375-0.11328125q-0.0390625-0.0078125-0.0703125-0.0078125q-0.265625,0-0.453125,0.3359375q-0.203125,0.375-0.328125,0.91015625t-0.1796875,1.09765625t-0.0703125,0.84375z M46.158984375,104.9296875q0-0.5625,0.14453125-1.12890625t0.44921875-1.015625t0.77734375-0.73046875t1.11328125-0.28125q0.2734375,0,0.6015625,0.06640625t0.60546875,0.2109375t0.46875,0.375t0.19140625,0.56640625q0,0.2109375-0.109375,0.28125t-0.2890625,0.0703125l-0.0546875-0.078125t-0.15234375-0.19921875t-0.20703125-0.2578125t-0.2109375-0.23046875q-0.3203125-0.3203125-0.6015625-0.34375l-0.0625,0q-0.234375,0-0.4375,0.140625q-0.2265625,0.171875-0.40234375,0.484375t-0.29296875,0.6640625t-0.18359375,0.7109375t-0.06640625,0.59375q0,0.3203125,0.07421875,0.73046875t0.25,0.77734375t0.4453125,0.6171875t0.69140625,0.25q0.3828125,0,0.6953125-0.1875t0.59765625-0.41796875t0.55859375-0.4140625t0.5625-0.18359375q0.125,0,0.25390625,0.03125t0.12890625,0.1640625l0,0.046875q-0.140625,0.3671875-0.4765625,0.6484375t-0.75390625,0.48828125t-0.8671875,0.30859375t-0.80078125,0.1015625q-0.65625,0-1.15234375-0.21484375t-0.82421875-0.58984375t-0.49609375-0.90234375t-0.16796875-1.15234375z M52.82046875,105.234375q0-0.4453125,0.11328125-0.91796875t0.359375-0.8515625t0.62109375-0.6171875t0.90625-0.23828125q0.3984375,0,0.83984375,0.13671875t0.80859375,0.390625t0.59765625,0.62109375t0.23046875,0.8203125q0,0.546875-0.19921875,1.0390625t-0.55859375,0.87890625t-0.83984375,0.609375t-1.04296875,0.22265625q-0.4609375,0-0.8046875-0.16796875t-0.57421875-0.44921875t-0.34375-0.6640625t-0.11328125-0.8125z M53.96890625,105.21875q0,0.140625,0.04296875,0.4140625t0.12890625,0.53515625t0.22265625,0.453125t0.33203125,0.17578125q0.4140625-0.046875,0.68359375-0.26953125t0.4375-0.54296875t0.234375-0.6953125t0.06640625-0.7109375q0-0.4296875-0.16796875-0.71875t-0.55078125-0.46875q0,0.015625,0.015625,0.015625t0.015625-0.015625l-0.1953125-0.046875q-0.078125-0.03125-0.19140625-0.0703125t-0.22265625-0.171875q-0.3046875,0.109375-0.47265625,0.28125t-0.25390625,0.41796875t-0.10546875,0.58984375t-0.01953125,0.828125z M58.739765625,104.9921875q0-0.609375,0.12890625-1.10546875t0.41015625-0.83984375t0.73828125-0.53515625t1.11328125-0.19140625q0.3671875,0,0.75,0.09765625t0.65625,0.36328125q0-0.15625,0.03125-0.64453125t0.078125-1.13671875t0.09765625-1.359375t0.08984375-1.3203125t0.0703125-1.0234375t0.046875-0.46875q0.078125-0.2265625,0.2890625-0.26953125t0.3984375-0.04296875q0.4921875,0,0.60546875,0.15625t0.11328125,0.625q0,1.7109375-0.15234375,3.40625t-0.15234375,3.40625q0,1.1015625,0.04296875,2.21484375t0.30859375,2.19140625l0.0859375,0.078125l0.046875,0.140625l-0.1171875,0.1796875q-0.296875,0.1875-0.6875,0.1875l-0.03125,0q-0.3984375,0-0.734375-0.1875q-0.125-0.078125-0.20703125-0.46484375t-0.12890625-0.8515625t-0.0703125-0.89453125t-0.0390625-0.609375q-0.2734375,0.625-0.74609375,1.07421875t-1.19140625,0.44921875q-0.5625,0-0.921875-0.2421875t-0.55859375-0.6171875t-0.28125-0.83984375t-0.08203125-0.92578125z M59.685078125,105.0390625q0,0.1796875,0.04296875,0.53125t0.13671875,0.703125t0.26171875,0.625t0.44140625,0.2734375q0.3671875-0.1796875,0.6640625-0.59765625t0.51171875-0.921875t0.3359375-1.0078125t0.12109375-0.87109375q0-0.4609375-0.3359375-0.765625t-0.8046875-0.3046875q-0.140625,0-0.28515625,0.0546875t-0.26953125,0.125q-0.2890625,0.2734375-0.44921875,0.49609375t-0.2421875,0.4609375t-0.10546875,0.52734375t-0.0234375,0.671875z M66.135625,105.40625q0-0.546875,0.12109375-1.2890625t0.41015625-1.40625t0.76171875-1.12890625t1.19140625-0.46484375q0.671875,0,1.0078125,0.38671875t0.3359375,1.04296875q0,0.4296875-0.16015625,0.94140625t-0.45703125,0.96875t-0.703125,0.76171875t-0.90625,0.3046875l-0.203125-0.015625q0,0.2109375,0.0625,0.56640625t0.18359375,0.70703125t0.3125,0.6171875t0.46484375,0.265625q0.3984375,0,0.765625-0.3203125t0.6953125-0.7109375t0.609375-0.7109375t0.515625-0.3203125q0.125,0,0.2578125,0.0390625t0.1484375,0.21875q0,0.109375-0.05859375,0.1796875t-0.10546875,0.15625q-0.2421875,0.4140625-0.52734375,0.7890625t-0.64453125,0.6796875t-0.78515625,0.48046875t-0.94140625,0.17578125q-0.671875,0-1.1171875-0.23828125t-0.71875-0.640625t-0.39453125-0.9296875t-0.12109375-1.10546875z M67.5340625,104.8125l0.21875,0.1953125q0.15625,0.140625,0.3125,0.0625t0.28125-0.28515625t0.23046875-0.51171875t0.1875-0.625t0.12109375-0.625t0.0390625-0.5078125l0-0.265625t-0.0234375-0.28125t-0.08203125-0.22265625t-0.18359375-0.11328125q-0.0390625-0.0078125-0.0703125-0.0078125q-0.265625,0-0.453125,0.3359375q-0.203125,0.375-0.328125,0.91015625t-0.1796875,1.09765625t-0.0703125,0.84375z"/><path fill="#" d=""/></svg>
